<?xml version="1.0" standalone="no"?><!DOCTYPE svg PUBLIC "-//W3C//DTD SVG 1.1//EN" "http://www.w3.org/Graphics/SVG/1.1/DTD/svg11.dtd"><svg t="1540365014892" class="icon" style="" viewBox="0 0 1024 1024" version="1.1" xmlns="http://www.w3.org/2000/svg" p-id="2028" xmlns:xlink="http://www.w3.org/1999/xlink" width="128" height="128"><defs><style type="text/css"></style></defs><path d="M397.033595 259.795954l0-0.305969c0-31.94148-23.676236-59.041698-55.618738-59.041698l-2.000564 0L339.414293 114.441449c0-16.053628-13.219069-29.069059-29.277814-29.069059-16.052604 0-29.272697 13.015432-29.272697 29.069059l0 86.005816 1.805112 0c-31.942503 0-59.428507 27.100218-59.428507 59.041698l0 0.301875c-29.738301 0-58.550511 26.031886-58.550511 58.142212l0 579.548442 290.893206 0L455.583083 317.933049C455.584106 285.822724 430.493661 259.795954 397.033595 259.795954L397.033595 259.795954zM280.864806 839.858096l-57.623395 0L223.24141 781.307585l57.623395 0L280.864806 839.858096 280.864806 839.858096zM280.864806 723.688283l-57.623395 0 0-58.554604 57.623395 0L280.864806 723.688283 280.864806 723.688283zM280.864806 608.445586l-57.623395 0 0-59.480696 57.623395 0L280.864806 608.445586 280.864806 608.445586zM280.864806 491.340471l-57.623395 0 0-58.550511 57.623395 0L280.864806 491.340471 280.864806 491.340471zM280.864806 374.240473l-57.623395 0 0-57.619302 57.623395 0L280.864806 374.240473 280.864806 374.240473zM397.033595 839.858096l-57.619302 0L339.414293 781.307585l57.619302 0L397.033595 839.858096 397.033595 839.858096zM397.033595 723.688283l-57.619302 0 0-58.554604 57.619302 0L397.033595 723.688283 397.033595 723.688283zM397.033595 608.445586l-57.619302 0 0-59.480696 57.619302 0L397.033595 608.445586 397.033595 608.445586zM397.033595 491.340471l-57.619302 0 0-58.550511 57.619302 0L397.033595 491.340471 397.033595 491.340471zM397.033595 374.240473l-57.619302 0 0-57.619302 57.619302 0L397.033595 374.240473 397.033595 374.240473zM397.033595 374.240473" p-id="2029"></path><path d="M806.234301 316.621171l-58.137095 0c-32.112372 0-60.165288 27.343765-60.165288 59.455113L687.931918 492.356614c0-32.112372-24.003693-59.566654-56.115042-59.566654l-58.142212 0c-32.111349 0-59.539025 27.454282-59.539025 59.566654l0 405.124877 175.819354 0 172.697247 0 0-521.405207C862.652242 343.964936 838.346673 316.621171 806.234301 316.621171L806.234301 316.621171zM631.239731 839.858096l-59.481719 0L571.758012 781.307585l59.481719 0L631.239731 839.858096 631.239731 839.858096zM631.239731 723.688283l-59.481719 0 0-58.554604 59.481719 0L631.239731 723.688283 631.239731 723.688283zM631.239731 608.445586l-59.481719 0 0-59.480696 59.481719 0L631.239731 608.445586 631.239731 608.445586zM804.102754 839.858096l-57.619302 0L746.483452 781.307585l57.619302 0L804.102754 839.858096 804.102754 839.858096zM804.102754 723.688283l-57.619302 0 0-58.554604 57.619302 0L804.102754 723.688283 804.102754 723.688283zM804.102754 608.445586l-57.619302 0 0-59.480696 57.619302 0L804.102754 608.445586 804.102754 608.445586zM804.102754 491.340471l-57.619302 0 0-58.550511 57.619302 0L804.102754 491.340471 804.102754 491.340471zM804.102754 491.340471" p-id="2030"></path></svg>