<?xml version="1.0" standalone="no"?><!DOCTYPE svg PUBLIC "-//W3C//DTD SVG 1.1//EN" "http://www.w3.org/Graphics/SVG/1.1/DTD/svg11.dtd"><svg t="1540451482085" class="icon" style="" viewBox="0 0 1024 1024" version="1.1" xmlns="http://www.w3.org/2000/svg" p-id="6975" xmlns:xlink="http://www.w3.org/1999/xlink" width="128" height="128"><defs><style type="text/css"></style></defs><path d="M546.133333 629.1456v341.333333a34.133333 34.133333 0 0 0 34.133334 34.133334h238.933333a68.266667 68.266667 0 0 0 68.266667-68.266667v-307.2a34.133333 34.133333 0 0 0-34.133334-34.133333H580.266667a34.133333 34.133333 0 0 0-34.133334 34.133333zM443.733333 595.012267H170.666667a34.133333 34.133333 0 0 0-34.133334 34.133333v307.2a68.266667 68.266667 0 0 0 68.266667 68.266667h238.933333a34.133333 34.133333 0 0 0 34.133334-34.133334v-341.333333a34.133333 34.133333 0 0 0-34.133334-34.133333zM887.466667 253.678933h-67.669334a142.592 142.592 0 0 0 31.368534-66.884266 142.848 142.848 0 0 0-39.68-125.576534 143.121067 143.121067 0 0 0-168.430934-24.9856c-28.330667 14.967467-49.988267 40.106667-63.5904 69.12L512 249.1904l-68.027733-144.9984c-11.3152-24.132267-28.228267-45.636267-50.432-60.3648C333.892267 4.266667 259.054933 14.660267 212.514133 61.218133a142.882133 142.882133 0 0 0-39.68 125.576534 142.592 142.592 0 0 0 31.368534 66.884266H136.533333a68.266667 68.266667 0 0 0-68.266666 68.266667v136.533333a68.266667 68.266667 0 0 0 68.266666 68.266667h307.2a34.133333 34.133333 0 0 0 34.133334-34.133333v-135.424c0-16.9984 11.6224-32.768 28.398933-35.498667A34.184533 34.184533 0 0 1 546.133333 355.362133v137.250134a34.133333 34.133333 0 0 0 34.133334 34.133333h307.2a68.266667 68.266667 0 0 0 68.266666-68.266667v-136.533333a68.266667 68.266667 0 0 0-68.266666-68.266667z m-554.376534 0l-51.268266-24.046933a73.6256 73.6256 0 0 1-41.762134-54.596267 73.6768 73.6768 0 0 1 20.701867-65.553066 73.454933 73.454933 0 0 1 65.553067-20.701867 73.591467 73.591467 0 0 1 54.596266 41.745067l57.770667 123.153066h-105.591467z m450.833067-78.6432a73.557333 73.557333 0 0 1-41.745067 54.596267l-51.268266 24.046933h-105.608534l57.770667-123.153066a73.557333 73.557333 0 0 1 54.613333-41.745067 73.489067 73.489067 0 0 1 65.536 20.701867 73.608533 73.608533 0 0 1 20.701867 65.553066z" p-id="6976"></path></svg>