<?xml version="1.0" standalone="no"?><!DOCTYPE svg PUBLIC "-//W3C//DTD SVG 1.1//EN" "http://www.w3.org/Graphics/SVG/1.1/DTD/svg11.dtd"><svg t="1544672641161" class="icon" style="" viewBox="0 0 1024 1024" version="1.1" xmlns="http://www.w3.org/2000/svg" p-id="2120" xmlns:xlink="http://www.w3.org/1999/xlink" width="64" height="64"><defs><style type="text/css"></style></defs><path d="M854.656 661.632c-36.864-17.472-68.288-24.448-95.104-26.24-9.344-29.248 25.088-79.104 40.32-98.88 99.264-106.368 61.76-425.472-150.592-395.84C637.888 142.272 627.136 145.92 616.768 150.464c64.512 104.064 56.768 274.176-12.864 348.8C595.136 510.656 580.672 531.136 570.304 552.704c7.168 19.2 11.264 40.192 13.184 57.536 23.744 4.032 50.368 11.776 80.32 25.984 135.296 64.448 146.176 294.656 146.176 294.656l178.112 0C988.096 931.008 978.24 720.576 854.656 661.632zM591.36 636.224c-40.384-19.264-74.816-26.88-104.064-28.736-10.176-32 27.456-86.592 44.032-108.224C633.6 389.76 603.136 74.176 405.504 64.512c0 0 0 0-0.064 0C393.152 63.936 380.288 64.256 366.656 66.176 205.824 88.64 117.76 395.392 272.192 497.536 291.776 532.416 296.192 585.6 297.024 606.72c-31.616 0-70.528 6.912-117.056 29.504-133.44 64.448-144.128 294.656-144.128 294.656l701.76 0C737.472 931.008 726.656 700.672 591.36 636.224zM384.256 629.504C383.488 628.928 382.08 628.224 381.184 627.776 382.912 628.032 384.64 628.032 386.432 628.224 385.792 628.608 384.768 629.12 384.256 629.504z" p-id="2121"></path></svg>