<?xml version="1.0" standalone="no"?><!DOCTYPE svg PUBLIC "-//W3C//DTD SVG 1.1//EN" "http://www.w3.org/Graphics/SVG/1.1/DTD/svg11.dtd"><svg t="1539501388843" class="icon" style="" viewBox="0 0 1024 1024" version="1.1" xmlns="http://www.w3.org/2000/svg" p-id="7298" xmlns:xlink="http://www.w3.org/1999/xlink" width="128" height="128"><defs><style type="text/css"></style></defs><path d="M864 128 160 128c-52.8 0-96 43.2-96 96l0 480c0 52.8 43.2 96 96 96l256 0 0 64-128 0 0 64 448 0 0-64-128 0 0-64 256 0c52.8 0 96-43.2 96-96L960 224C960 171.2 916.8 128 864 128zM896 608c0 17.6-14.4 32-32 32L160 640c-17.6 0-32-14.4-32-32L128 224c0-17.6 14.4-32 32-32l704 0c17.6 0 32 14.4 32 32L896 608z" p-id="7299"></path><path d="M704 256l0 64-128 160-32 0-96-96 0-64-96 0 0 64-96 96L192 480l0 96 96 0 0-64 96-96 32 0 96 96 0 64 96 0 0-64 128-160 64 0 0-96L704 256zM256 544l-32 0 0-32 32 0L256 544zM384 384l0-32 32 0 0 32L384 384zM576 544l-32 0 0-32 32 0L576 544zM768 320l-32 0 0-32 32 0L768 320z" p-id="7300"></path></svg>