<?xml version="1.0" standalone="no"?><!DOCTYPE svg PUBLIC "-//W3C//DTD SVG 1.1//EN" "http://www.w3.org/Graphics/SVG/1.1/DTD/svg11.dtd"><svg t="1539499467373" class="icon" style="" viewBox="0 0 1024 1024" version="1.1" xmlns="http://www.w3.org/2000/svg" p-id="1911" xmlns:xlink="http://www.w3.org/1999/xlink" width="128" height="128"><defs><style type="text/css"></style></defs><path d="M987.572301 430.984554l-51.983013-11.989833c-3.330313-15.649813-7.821299-30.858616-12.925354-45.806639l39.036877-35.758056c21.806535-19.976342 26.607173-51.844851 11.602581-77.025716l-10.858586-18.225392c-15.003553-25.180864-45.886618-37.08612-74.641609-28.773384L835.989556 228.383764c-10.791045-11.711936-22.235683-22.798605-34.325601-33.251951l15.458678-50.211705c8.576724-27.863172-3.709584-57.788417-29.698493-72.326643l-18.808734-10.521813c-25.986831-14.538226-58.876397-9.88547-79.489007 11.243741l-36.948288 37.875508c-15.404645-4.930653-31.082573-9.272285-47.209392-12.491255l-12.393336-50.45134c-6.950534-28.285051-33.032962-48.248304-63.040067-48.248304l-21.71925 0c-30.007105 0-56.088494 19.965267-63.037989 48.249311l-12.393336 50.453354c-16.128897 3.21897-31.802669 7.559596-47.207313 12.491255l-36.948288-37.873494c-20.615727-21.130218-53.504254-25.781967-79.491085-11.243741l-18.808734 10.523827c-25.986831 14.538226-38.273139 44.463472-29.694336 72.326643l15.458678 50.209691c-12.093036 10.454353-23.536635 21.540015-34.329758 33.253965l-51.807405-14.975209c-28.754991-8.310722-59.638057 3.594533-74.641609 28.777411l-10.858586 18.225392c-15.003553 25.180864-10.201875 57.049373 11.60362 77.023702l39.030642 35.750001c-5.104055 14.950037-9.603354 30.164881-12.93055 45.817715l-51.967427 11.987819c-29.192452 6.734967-49.793631 32.008464-49.793631 61.084916l0 21.045641c0.002078 29.076452 20.604297 54.348942 49.795709 61.082903l51.908198 11.972716c3.326156 15.678005 7.825456 30.916008 12.93055 45.889203l-38.967257 35.692609c-21.806535 19.974329-26.607173 51.844851-11.602581 77.025716l10.858586 18.225392c15.003553 25.180864 45.886618 37.08612 74.641609 28.773384l51.643228-14.926879c10.825335 11.759259 22.306341 22.891237 34.440941 33.381838l-15.400488 50.031475c-8.578803 27.863172 3.707506 57.788417 29.696415 72.326643l18.808734 10.521813c25.986831 14.538226 58.876397 9.88547 79.489007-11.243741l36.788266-37.710381c15.476343 4.958845 31.222851 9.329677 47.426563 12.560729l12.338263 50.215732c6.949495 28.287065 33.030884 48.249311 63.037989 48.249311l21.71925 0c30.007105-0.002014 56.088494-19.965267 63.037989-48.251325l12.336185-50.215732c16.203712-3.231053 31.949182-7.601884 47.425524-12.562743l36.788266 37.708367c20.615727 21.130218 53.504254 25.781967 79.491085 11.242734l18.808734-10.521813c25.986831-14.538226 38.273139-44.463472 29.694336-72.326643l-15.402567-50.035502c12.132522-10.491607 23.61145-21.620565 34.434707-33.381838l51.647384 14.926879c28.754991 8.312736 59.638057-3.59252 74.641609-28.775398l10.858586-18.225392c15.003553-25.180864 10.201875-57.05038-11.60362-77.023702l-38.976609-35.702678c5.101977-14.971181 9.601276-30.201129 12.925354-45.87712l51.919628-11.97775c29.192452-6.733961 49.793631-32.00645 49.793631-61.082903l0-21.045641C1037.368011 462.991004 1016.764753 437.718514 987.572301 430.984554zM518.685044 664.166063c-92.025738 0-166.632018-72.29241-166.632018-161.464023 0-89.158524 74.60628-161.450934 166.632018-161.450934 92.027816 0 166.61851 72.29241 166.61851 161.450934C685.303554 591.873653 610.712861 664.166063 518.685044 664.166063z" p-id="1912"></path></svg>