<?xml version="1.0" standalone="no"?><!DOCTYPE svg PUBLIC "-//W3C//DTD SVG 1.1//EN" "http://www.w3.org/Graphics/SVG/1.1/DTD/svg11.dtd"><svg t="1540451578696" class="icon" style="" viewBox="0 0 1042 1024" version="1.1" xmlns="http://www.w3.org/2000/svg" p-id="8505" xmlns:xlink="http://www.w3.org/1999/xlink" width="130.25" height="128"><defs><style type="text/css"></style></defs><path d="M470.613852 856.964539c2.334347-5.446809 4.928065-10.893617 7.521783-16.21074 0.389058-2.074975 0.64843-4.149949 0.64843-6.35461V373.884498c5.317123-0.64843 10.634245-1.426545 15.951368-2.464032 47.594732-9.467072 99.209726-37.738602 149.138804-81.831814 31.383992-27.6231 59.007092-60.952381 81.053698-97.394123 22.176292 36.441743 49.799392 69.771023 81.053698 97.394123 23.084093 20.231003 47.33536 36.571429 72.10537 49.150963h-0.389058v36.571429c25.41844 11.152989 48.502533 26.585613 68.863222 45.130699v-57.710233c11.412361 2.204661 22.824721 3.760892 33.97771 4.020263h1.037488c19.452888 0 35.533941-15.56231 36.052685-35.015198a36.052685 36.052685 0 0 0-35.015198-36.960486c-40.98075-1.167173-86.759878-22.176292-128.778115-59.136778-41.629179-36.701114-75.347518-85.592705-95.059778-137.85613 0-0.129686-0.129686-0.129686-0.129685-0.259371-0.129686-0.259372-0.259372-0.64843-0.389058-0.907802l-0.389058-0.778115-0.389058-0.778116c-0.129686-0.259372-0.259372-0.64843-0.389057-0.907801-0.129686-0.129686-0.129686-0.389058-0.259372-0.518744-0.129686-0.389058-0.389058-0.64843-0.518744-1.037487 0-0.129686-0.129686-0.259372-0.129686-0.259372l-0.778115-1.167173v-0.129686c-0.907801-1.426545-1.945289-2.85309-3.112462-4.14995l-0.129686-0.129686c-0.389058-0.389058-0.64843-0.778116-1.037488-1.167173l-0.778115-0.778115c-0.129686-0.129686-0.259372-0.389058-0.518744-0.518744-1.945289-1.945289-4.279635-3.631206-6.743667-5.057751-0.129686 0-0.129686-0.129686-0.259372-0.129686-0.389058-0.259372-0.778116-0.389058-1.037488-0.648429-0.129686-0.129686-0.389058-0.129686-0.518743-0.259372L740.490245 77.81155l-0.778115-0.389058c-0.259372-0.129686-0.518744-0.129686-0.778116-0.259371-0.259372-0.129686-0.64843-0.259372-0.907801-0.389058-0.129686 0-0.129686-0.129686-0.259372-0.129686s-0.259372-0.129686-0.389058-0.129686c-0.389058-0.129686-0.64843-0.259372-1.037487-0.389058-0.259372-0.129686-0.518744-0.129686-0.778116-0.259372-0.259372-0.129686-0.64843-0.129686-0.907801-0.259371-0.259372-0.129686-0.518744-0.129686-0.778116-0.259372-0.259372-0.129686-0.64843-0.129686-0.907801-0.259372-0.259372 0-0.518744-0.129686-0.778115-0.129686-0.259372 0-0.64843-0.129686-0.907802-0.129686-0.259372 0-0.518744-0.129686-0.907801-0.129686-0.259372 0-0.64843-0.129686-0.907802-0.129686-0.259372 0-0.518744-0.129686-0.907801-0.129686-0.259372 0-0.64843 0-0.907802-0.129686h-4.409321c-0.389058 0-0.64843 0-1.037487 0.129686h-0.778116c-0.389058 0-0.64843 0.129686-1.037487 0.129686-0.259372 0-0.518744 0-0.778115 0.129686-0.389058 0-0.64843 0.129686-1.037488 0.129686-0.259372 0-0.518744 0.129686-0.778115 0.129686-0.259372 0-0.64843 0.129686-0.907802 0.259372-0.259372 0-0.518744 0.129686-0.778115 0.129686-0.259372 0.129686-0.64843 0.129686-0.907802 0.259372-0.259372 0.129686-0.518744 0.129686-0.907801 0.259371-0.259372 0.129686-0.518744 0.129686-0.778116 0.259372-0.259372 0.129686-0.64843 0.259372-0.907801 0.259372-0.129686 0-0.389058 0.129686-0.518744 0.129686-0.129686 0-0.259372 0.129686-0.259371 0.129686l-0.778116 0.389058c-0.259372 0.129686-0.518744 0.259372-0.907801 0.389057 0 0.129686-0.259372 0.259372-0.389058 0.389058a3.890578 3.890578 0 0 0-1.037487 0.518744c-0.129686 0.129686-0.259372 0.129686-0.389058 0.259372-0.389058 0.259372-0.778116 0.389058-1.167173 0.648429 0 0-0.129686 0-0.129686 0.129686-2.464032 1.426545-4.798379 3.112462-6.743668 5.057751l-0.389058 0.389058-0.778115 0.778115-1.037488 1.037488-0.129686 0.129685c-1.167173 1.296859-2.204661 2.723404-3.112462 4.14995-0.259372 0.389058-0.518744 0.778116-0.778115 1.296859 0 0.129686-0.129686 0.259372-0.129686 0.259372a3.890578 3.890578 0 0 0-0.518744 1.037487c-0.129686 0.129686-0.129686 0.389058-0.259371 0.518744-0.129686 0.259372-0.259372 0.64843-0.389058 0.907801l-0.389058 0.778116-0.389058 0.778115c-0.129686 0.259372-0.259372 0.64843-0.389057 0.907802 0 0.129686-0.129686 0.129686-0.129686 0.259371-15.821682 42.277609-40.98075 82.350557-71.975684 115.420466-26.326241-9.985816-53.171226-26.585613-78.070922-48.502532-39.813576-35.015198-74.439716-86.500507-95.059777-141.35765 0-0.129686-0.129686-0.129686-0.129686-0.259372-0.129686-0.259372-0.259372-0.64843-0.389058-0.907801l-0.389058-0.778116-0.389058-0.778115c-0.129686-0.259372-0.259372-0.64843-0.389057-0.907802-0.129686-0.129686-0.129686-0.389058-0.259372-0.518743-0.259372-0.389058-0.389058-0.778116-0.64843-1.037488 0-0.129686-0.129686-0.129686-0.129686-0.259371-0.259372-0.389058-0.518744-0.907801-0.778115-1.29686-0.907801-1.426545-1.945289-2.85309-3.112462-4.149949-0.389058-0.389058-0.778116-0.778116-1.037487-1.167173l-0.64843-0.64843-0.518744-0.518743c-2.074975-1.945289-4.279635-3.631206-6.743667-5.057751-0.129686 0-0.129686-0.129686-0.259372-0.129686-0.389058-0.259372-0.778116-0.389058-1.167174-0.64843-0.129686-0.129686-0.259372-0.129686-0.518743-0.259371S428.206557 3.631206 427.947185 3.371834c-0.259372-0.129686-0.518744-0.259372-0.648429-0.259372l-0.778116-0.389058C426.001897 2.593718 425.612839 2.593718 425.353467 2.464032c-0.129686 0-0.259372-0.129686-0.259372-0.129685-0.129686 0-0.259372-0.129686-0.518743-0.129686a2.399189 2.399189 0 0 0-0.907802-0.259372c-0.259372-0.129686-0.518744-0.129686-0.778115-0.259372-0.259372-0.129686-0.64843-0.129686-0.907802-0.259372-0.259372-0.129686-0.518744-0.129686-0.778115-0.259372-0.259372-0.129686-0.518744-0.129686-0.907802-0.259372-0.259372-0.129686-0.64843-0.129686-0.907801-0.129685-0.259372 0-0.518744-0.129686-0.778116-0.129686-0.259372 0-0.64843-0.129686-0.907801-0.129686-0.259372 0-0.518744-0.129686-0.778116-0.129686-0.389058 0-0.64843-0.129686-1.037487-0.129686H409.791157c-0.259372 0-0.64843 0-0.907801 0.129686-0.259372 0-0.518744 0-0.907802 0.129686-0.259372 0-0.64843 0.129686-0.907801 0.129686-0.259372 0-0.518744 0.129686-0.907802 0.129686-0.259372 0-0.64843 0.129686-0.907801 0.129685-0.259372 0-0.518744 0.129686-0.778116 0.129686-0.259372 0.129686-0.64843 0.129686-0.907801 0.259372-0.259372 0-0.518744 0.129686-0.778115 0.259372-0.389058 0.129686-0.64843 0.129686-1.037488 0.259372-0.259372 0.129686-0.518744 0.129686-0.648429 0.259372-0.389058 0.129686-0.64843 0.259372-1.037488 0.389057-0.129686 0-0.259372 0.129686-0.389057 0.129686-0.129686 0-0.129686 0.129686-0.259372 0.129686-0.259372 0.129686-0.64843 0.259372-0.907802 0.389058-0.259372 0.129686-0.518744 0.259372-0.778115 0.259372l-0.778116 0.389058c-0.259372 0.129686-0.64843 0.259372-0.907801 0.389057-0.129686 0.129686-0.389058 0.259372-0.518744 0.259372-0.389058 0.129686-0.64843 0.389058-1.037487 0.518744-0.129686 0-0.259372 0.129686-0.389058 0.259372l-1.167173 0.778115h-0.129686c-1.426545 0.907801-2.85309 1.945289-4.020263 3.112462l-0.129686 0.129686c-0.389058 0.389058-0.778116 0.64843-1.167174 1.037487l-0.778115 0.778116c-0.129686 0.129686-0.389058 0.259372-0.518744 0.518744-1.556231 1.685917-2.982776 3.50152-4.279635 5.446808-0.259372 0.389058-0.518744 0.778116-0.778116 1.296859 0 0.129686-0.129686 0.129686-0.129686 0.259372a3.890578 3.890578 0 0 0-0.518743 1.037487c-0.129686 0.129686-0.129686 0.389058-0.259372 0.518744-0.129686 0.259372-0.259372 0.64843-0.389058 0.907802l-0.389058 0.778115-0.389057 0.778116c-0.129686 0.259372-0.259372 0.64843-0.389058 0.907801 0 0.129686-0.129686 0.129686-0.129686 0.259372-20.620061 54.727457-55.246201 106.342452-95.059777 141.357649-51.096251 45.001013-108.676798 66.399189-153.807498 57.061804-27.6231-5.70618-48.243161-22.305978-61.082066-49.280649a35.987842 35.987842 0 0 0-47.98379-17.118541 35.987842 35.987842 0 0 0-17.118541 47.983789c19.06383 40.202634 50.707194 69.122594 90.261399 82.998987V763.850051c0 19.971631 16.081054 36.052685 36.052684 36.052685s36.052685-16.081054 36.052685-36.052685V295.424519c54.727457-4.020263 112.697062-30.47619 165.219858-76.644377 30.994934-27.234043 58.618034-61.341439 81.053699-99.469098 22.435664 38.12766 50.18845 72.235056 81.053698 99.469098a348.077001 348.077001 0 0 0 65.361702 45.908814c-54.079027 36.960486-114.382979 55.635258-151.213779 16.470112a36.052685 36.052685 0 0 0-52.522797 49.410334c14.91388 15.821682 32.162107 27.493414 51.485309 34.885512v468.944275c0 19.971631 16.081054 36.052685 36.052685 36.052685 11.671733 0 21.657548-5.317123 28.27153-13.487335z" p-id="8506"></path><path d="M775.764815 418.496454c-39.813576 0-76.903749 12.449848-107.37994 33.588652 0 0-0.129686 0-0.129686 0.129686-17.248227 10.763931-47.854103 8.818642-70.289767 7.521783-21.398176-1.167173-39.943262 15.043566-41.240121 36.441743a38.983587 38.983587 0 0 0 36.441743 41.240122l7.003039 0.389057c-8.559271 21.657548-13.487335 45.130699-13.487335 69.771024 0 56.672746 25.159068 107.379939 64.842958 142.135765-84.425532 44.741641-142.135765 133.446809-142.135765 235.379939 0 21.527862 17.377913 38.905775 38.905775 38.905775s38.905775-17.377913 38.905775-38.905775c0-103.878419 84.555218-188.433637 188.563324-188.433637 104.267477 0 188.952381-84.81459 188.952381-188.952381S880.032292 418.496454 775.764815 418.496454z m0 300.222898c-61.341439 0-111.140831-49.929078-111.140831-111.140831s49.929078-111.140831 111.140831-111.140831 111.140831 49.929078 111.14083 111.140831-49.799392 111.140831-111.14083 111.140831zM980.538877 814.68693a39.022492 39.022492 0 0 0-54.857142-5.057751 39.022492 39.022492 0 0 0-5.057751 54.857143c28.141844 33.718338 43.574468 76.514691 43.574468 120.607903 0 21.527862 17.377913 38.905775 38.905775 38.905775s38.905775-17.377913 38.905775-38.905775c0.129686-62.24924-21.787234-122.682877-61.471125-170.407295z" p-id="8507"></path></svg>