<?xml version="1.0" standalone="no"?><!DOCTYPE svg PUBLIC "-//W3C//DTD SVG 1.1//EN" "http://www.w3.org/Graphics/SVG/1.1/DTD/svg11.dtd"><svg t="1544672706666" class="icon" style="" viewBox="0 0 1229 1024" version="1.1" xmlns="http://www.w3.org/2000/svg" p-id="4923" xmlns:xlink="http://www.w3.org/1999/xlink" width="76.8125" height="64"><defs><style type="text/css"></style></defs><path d="M599.894358 338.669868c-34.420168 0-71.913565-23.971188-72.528212-62.079232 0-38.108043 37.493397-62.079232 72.528212-62.079231 36.878752 0 62.079232 25.815126 62.079231 62.079231 0 36.878752-25.815126 62.079232-62.079231 62.079232z" fill="" p-id="4924"></path><path d="M599.894358 325.762305c29.503001 0 49.171669-19.668667 49.171668-49.171669s-19.668667-49.171669-49.171668-49.171668-59.006002 19.054022-59.006003 49.171668c0 29.503001 29.503001 49.171669 59.006003 49.171669zM324.533013 338.669868c-35.034814 0-72.528211-23.971188-72.528211-62.079232 0-38.108043 37.493397-62.079232 72.528211-62.079231 36.264106 0 62.079232 25.815126 62.079232 62.079231 0 36.878752-25.815126 62.079232-62.079232 62.079232z" fill="" p-id="4925"></path><path d="M324.533013 227.418968c-29.503001 0-59.620648 19.054022-59.620648 49.171668 0 29.503001 30.117647 49.171669 59.620648 49.171669 29.503001 0 49.171669-19.668667 49.171669-49.171669s-19.668667-49.171669-49.171669-49.171668z" fill="" p-id="4926"></path><path d="M1062.108043 996.340936c-4.917167 0-10.44898-1.229292-14.7515-3.687875l-97.114046-53.474189c-38.108043 9.219688-75.601441 17.82473-113.709484 17.824729-149.973589 0-283.966387-79.289316-339.284514-199.145258-1.843938 0.614646-3.687875 0.614646-4.917166 0.614646-12.907563 1.229292-26.429772 1.843938-39.337335 1.843938-44.254502 0-79.903962-7.37575-121.085234-15.980793l-12.292918-2.458583-127.846338 63.923169c-4.302521 2.458583-9.219688 3.073229-14.136855 3.07323-7.37575 0-14.751501-2.458583-20.283313-7.375751-9.219688-7.990396-12.907563-21.512605-9.219688-33.190876l31.961584-97.114046c-99.572629-75.601441-151.817527-171.486194-151.817527-277.205282 0-201.603842 190.540216-365.714286 424.105643-365.714286 205.291717 0 387.841537 127.846339 426.564225 297.488596 181.935174 19.054022 322.689076 154.890756 322.689076 314.084034 0 83.591837-47.327731 167.798319-132.763505 237.867947l23.356542 78.060024c3.687875 12.292917-0.614646 25.20048-10.448979 33.190876-5.531813 4.917167-12.907563 7.37575-19.668668 7.37575z m-108.177671-121.085234c4.917167 0 10.44898 1.229292 14.751501 3.687875l41.795918 22.741897-7.990396-25.815126c-3.687875-12.292917 0.614646-25.815126 11.063625-33.805522 81.133253-60.84994 125.387755-132.14886 125.387756-201.603842 0-137.680672-138.909964-254.463385-303.020409-254.463385-167.183673 0-303.635054 114.32413-303.635054 254.463385 0 140.139256 136.451381 254.463385 303.635054 254.463386 36.264106 0 73.757503-9.219688 110.636255-18.439376 2.458583-0.614646 4.917167-1.229292 7.37575-1.229292z m-501.55102-784.288115c-199.759904 0-362.641056 136.451381-362.641057 303.635054 0 92.811525 48.557023 173.330132 144.441777 240.326531 11.063625 7.990396 15.980792 22.127251 11.678271 35.034814l-15.980792 47.327731 70.684274-35.64946c4.302521-1.843938 9.219688-3.073229 13.522209-3.073229 1.843938 0 4.302521 0 6.146458 0.614645l22.127251 4.302521c38.108043 7.990396 70.684274 14.751501 109.406963 14.751501 7.990396 0 16.595438 0 24.585834-0.614646-4.302521-19.054022-6.146459-38.722689-6.146458-57.162065 0-167.183673 152.432173-305.478992 343.587034-315.927971-39.337335-133.992797-191.769508-233.565426-361.411764-233.565426z" fill="" p-id="4927"></path><path d="M1188.110444 640.460984c0-155.505402-144.441777-288.268908-321.459784-301.791116 0-1.843938 0.614646-3.687875 0-6.146459-35.64946-165.339736-213.896759-290.727491-414.271308-290.727491-226.804322 0-411.198079 157.963986-411.198079 352.192077 0 104.489796 53.47419 198.530612 154.27611 272.288115l-35.034814 105.719088c-2.458583 6.761104 0 14.751501 5.531813 19.054022 3.073229 3.073229 7.37575 4.302521 11.678271 4.302521 2.458583 0 5.531813-0.614646 7.990396-1.843938l132.14886-65.767107 15.980792 3.07323c40.566627 8.605042 75.601441 15.366146 119.241297 15.366146 12.907563 0 25.815126-0.614646 38.108043-1.843938 4.917167-0.614646 9.219688-3.073229 12.292917-6.761104 47.327731 119.241297 178.861945 205.291717 333.138055 205.291717 39.337335 0 79.289316-9.834334 115.553422-18.439376l102.031212 55.932773c2.458583 1.229292 5.531813 2.458583 8.605042 2.458583 4.302521 0 7.990396-1.229292 11.063626-3.687875 5.531813-4.302521 7.990396-12.292917 6.146458-19.054021l-25.815126-86.665066c86.05042-68.22569 133.992797-150.588235 133.992797-232.950781z m-700.696278 69.454982c-11.678271 1.229292-23.356543 1.229292-35.034814 1.229292-39.337335 0-73.142857-6.761104-111.865546-14.7515l-22.741897-4.302522c-3.687875-0.614646-7.990396 0-11.678272 1.843938l-98.957983 49.786315 25.815126-77.445379c2.458583-7.37575 0-15.980792-6.761104-20.283313-99.572629-69.454982-149.973589-153.661465-149.97359-250.77551 0-174.559424 168.412965-316.542617 375.54862-316.542617 183.164466 0 344.816327 111.2509 378.621849 259.380552-191.769508 2.458583-347.27491 137.680672-347.27491 303.020408 0 23.971188 3.687875 47.327731 9.834333 70.069628-1.229292-1.229292-3.073229-1.229292-5.531812-1.229292z m534.127251 143.212485c-6.146459 4.302521-8.605042 12.292917-6.146459 19.668668l17.210084 56.547419-69.454982-38.108043c-2.458583-1.229292-5.531813-2.458583-8.605042-2.458584-1.229292 0-3.073229 0-4.302521 0.614646-37.493397 9.219688-76.216086 19.054022-113.709484 19.054022-174.559424 0-316.542617-119.855942-316.542617-267.370949s141.983193-267.370948 316.542617-267.370948c171.486194 0 315.927971 122.314526 315.927971 267.370948 0 73.142857-46.713085 148.744298-130.919567 212.052821z" fill="" p-id="4928"></path><path d="M727.740696 604.811525c-27.044418 0-52.244898-25.20048-52.244898-52.244898s25.20048-52.244898 52.244898-52.244898c38.108043 0 62.079232 27.044418 62.079232 52.244898 0 31.961585-31.961585 52.244898-62.079232 52.244898z" fill="" p-id="4929"></path><path d="M727.740696 512.614646c-19.668667 0-39.337335 19.668667-39.337335 39.337335s19.668667 39.337335 39.337335 39.337335c29.503001 0 49.171669-19.668667 49.171669-39.337335 0-19.054022-19.668667-39.337335-49.171669-39.337335zM944.096038 604.811525c-27.044418 0-52.244898-25.20048-52.244898-52.244898s25.20048-52.244898 52.244898-52.244898c38.722689 0 62.693878 27.044418 62.693878 52.244898-0.614646 25.20048-24.585834 52.244898-62.693878 52.244898z" fill="" p-id="4930"></path><path d="M944.096038 512.614646c-19.668667 0-39.337335 19.668667-39.337335 39.337335s19.668667 39.337335 39.337335 39.337335c29.503001 0 49.171669-19.668667 49.171669-39.337335 0-19.054022-19.668667-39.337335-49.171669-39.337335z" fill="" p-id="4931"></path></svg>